<svg id="Layer_1" data-name="Layer 1" xmlns="http://www.w3.org/2000/svg" viewBox="0 0 42 42.07"><defs><style>.cls-1{fill:#fff;}.cls-2,.cls-3{fill:none;stroke:#d93b21;}.cls-3{stroke-linecap:round;}.cls-4{fill:#d73d2b;}</style></defs><title>O365groups</title><circle class="cls-1" cx="21" cy="21.07" r="21"/><g id="Document-Icon-Copy-2"><g id="Group-3"><g id="Group"><circle id="Oval-50" class="cls-2" cx="17.5" cy="18.5" r="3"/><path id="Oval-50-Copy" class="cls-3" d="M19.5,21.89a5.46,5.46,0,0,0-2-.39,4.72,4.72,0,0,0-5,4.43,1.8,1.8,0,0,0,2,1.57h5"/><path id="Oval-50-Copy-2" class="cls-3" d="M28.5,19c0-1.45-1.39-2.5-3.1-2.5A3.2,3.2,0,0,0,22.5,18"/><circle id="Oval-50-2" data-name="Oval-50" class="cls-2" cx="25.5" cy="14.5" r="2"/><polygon id="Fill-7-Copy-2" class="cls-4" points="22 22.47 22 28.17 23.84 27.41 23.84 22.92 27.18 22.16 27.18 28.84 22.01 28.17 27.15 30 30 29.09 30 21.45 27.15 20.5 22 22.47"/></g></g></g><g id="Symbols"><path class="cls-4" d="M21,0A21,21,0,1,0,42,21,21,21,0,0,0,21,0Zm0,41A20,20,0,1,1,41,21,20,20,0,0,1,21,41Z"/></g></svg>