<svg id="Layer_1" data-name="Layer 1" xmlns="http://www.w3.org/2000/svg" viewBox="0 0 42 42.07"><defs><style>.cls-1{fill:#fff;}.cls-2{fill:#0088c9;}</style></defs><title>Subsites</title><circle class="cls-1" cx="21" cy="21.07" r="21"/><g id="Symbols"><g id="Subsite-Tag-Copy"><g id="Sharepoint-icon-Copy-5"><g id="Group-2"><path id="Rectangle-67-Copy" class="cls-2" d="M14,28.92h2.92s0-3,0-3H14S14,28.92,14,28.92Zm-1-3a1,1,0,0,1,1-1h2.93a1,1,0,0,1,1,1v3a1,1,0,0,1-1,1H14a1,1,0,0,1-1-1Z"/><path id="Rectangle-67-Copy-6" class="cls-2" d="M19.9,28.92h2.92s0-3,0-3H19.9S19.9,28.92,19.9,28.92Zm-1-3a1,1,0,0,1,1-1h2.93a1,1,0,0,1,1,1v3a1,1,0,0,1-1,1H19.9a1,1,0,0,1-1-1Z"/><path id="Rectangle-67-Copy-4" class="cls-2" d="M25.81,28.92h2.92s0-3,0-3H25.8S25.81,28.92,25.81,28.92Zm-1-3a1,1,0,0,1,1-1h2.93a1,1,0,0,1,1,1v3a1,1,0,0,1-1,1H25.8a1,1,0,0,1-1-1Z"/><path id="Rectangle-67-Copy-5" class="cls-2" d="M24.79,18h0Zm0-5h0Zm-6.85,5h6.85V13.07H17.94Zm-1-5a1,1,0,0,1,1-1h6.86a1,1,0,0,1,1,1v5a1,1,0,0,1-1,1H17.93a1,1,0,0,1-1-1Z"/><polygon id="Path-2073" class="cls-2" points="17.25 15.05 25.12 15.05 25.12 14.05 17.25 14.05 17.25 15.05"/><path id="Path-498" class="cls-2" d="M16,25V22.5a.5.5,0,0,1,.51-.5h9.79a.5.5,0,0,1,.51.49V25h1V22.49A1.5,1.5,0,0,0,26.26,21H16.47A1.5,1.5,0,0,0,15,22.5V25Z"/><polygon id="Path-499" class="cls-2" points="21.86 25.46 21.86 18.52 20.86 18.52 20.86 25.46 21.86 25.46"/></g></g></g></g><g id="Symbols-2" data-name="Symbols"><path class="cls-2" d="M21,0A21,21,0,1,0,42,21,21,21,0,0,0,21,0Zm0,41A20,20,0,1,1,41,21,20,20,0,0,1,21,41Z"/></g></svg>