<?xml version="1.0" encoding="UTF-8" standalone="no"?>
<svg width="310px" height="83px" viewBox="0 0 310 83" version="1.1" xmlns="http://www.w3.org/2000/svg" xmlns:xlink="http://www.w3.org/1999/xlink">
    <!-- Generator: Sketch 41.1 (35376) - http://www.bohemiancoding.com/sketch -->
    <title>Group</title>
    <desc>Created with Sketch.</desc>
    <defs></defs>
    <g id="Itération-2" stroke="none" stroke-width="1" fill="none" fill-rule="evenodd">
        <g id="LOGO-Copy-3" transform="translate(-45.000000, -57.000000)">
            <g id="Group" transform="translate(45.250000, 57.191520)">
                <g id="LOGO-Copy-2" transform="translate(0.000000, 0.000000)">
                    <path d="M193.364316,77.4055431 C190.259762,77.4055431 187.734005,74.9752228 187.734005,71.9879762 C187.734005,69.0007296 190.259762,66.5706215 193.364316,66.5706215 C196.468869,66.5706215 198.994626,69.0007296 198.994626,71.9879762 C198.994626,74.9752228 196.468869,77.4055431 193.364316,77.4055431 M193.364316,20.2640554 C199.32647,20.2640554 204.176893,24.9312039 204.176893,30.6680755 C204.176893,36.4047344 199.32647,41.0720952 193.364316,41.0720952 C187.402162,41.0720952 182.551738,36.4047344 182.551738,30.6680755 C182.551738,24.9312039 187.402162,20.2640554 193.364316,20.2640554 M203.623454,53.3316874 C200.235786,50.4167882 195.81709,50.4982587 192.706803,51.0806444 C189.010885,51.7720817 186.153726,51.4305002 184.662305,50.1187001 C183.36955,48.9815096 183.42335,47.449697 183.470536,47.0071262 C183.676257,45.0800552 184.662966,44.3608245 185.543399,43.9689607 C187.852631,45.2287809 190.519945,45.9518306 193.364316,45.9518306 C202.136884,45.9518306 209.248252,39.1089566 209.248252,30.6680755 C209.248252,22.226982 202.136884,15.3843201 193.364316,15.3843201 C184.591968,15.3843201 177.480379,22.226982 177.480379,30.6680755 C177.480379,34.3045389 178.802681,37.6427022 181.006738,40.2665147 C179.170685,41.756319 178.041757,43.8764579 177.767683,46.4434108 C177.456786,49.3538546 178.588361,52.2498713 180.794402,54.1900966 C184.466286,57.4196327 189.893963,57.2263526 193.800894,56.4952411 C196.43337,56.0030244 198.508878,56.3308153 199.802295,57.4436071 C200.742261,58.25237 201.239915,59.4950054 201.133196,60.7675555 C201.053157,61.7254686 200.443051,62.6167628 199.319414,63.4318908 C197.616981,62.3326774 195.568813,61.6908861 193.364316,61.6908861 C187.453978,61.6908861 182.662646,66.300963 182.662646,71.9879762 C182.662646,77.6749894 187.453978,82.2852785 193.364316,82.2852785 C199.274654,82.2852785 204.065985,77.6749894 204.065985,71.9879762 C204.065985,70.4254001 203.702391,68.9449307 203.0548,67.6180672 C205.84978,65.4711959 206.692949,63.057 206.847515,61.2109748 C207.097335,58.2290323 205.892115,55.2833693 203.623454,53.3316874" id="Fill-1" fill="#F37322"></path>
                    <path d="M131.762609,19.6344847 C131.762169,19.633636 131.761948,19.6325752 131.761948,19.6325752 C130.511307,17.338251 127.410501,16.3149917 125.099506,16.5220622 C122.490843,16.7558652 119.146833,18.8282676 116.880817,21.7126154 L116.880817,16.1558699 L112.197528,16.1558699 L112.197528,48.3398457 L116.880817,48.3398457 L116.880817,34.4005637 C116.880817,29.6534298 119.991986,23.7217934 124.461617,21.4049799 C124.467129,21.4015853 124.472421,21.3977664 124.477713,21.3943718 C124.477713,21.3943718 124.479256,21.394584 124.479697,21.3943718 C124.85167,21.1940905 125.279649,21.0788863 125.736071,21.0788863 C126.648034,21.0788863 127.447324,21.5354598 127.905731,22.222866 L127.908597,22.2222295 C128.334812,22.7984626 129.032895,23.1754752 129.823807,23.1754752 C131.122295,23.1754752 132.174933,22.1626119 132.174933,20.9131875 C132.174933,20.438368 132.022351,19.9983432 131.762609,19.6344847" id="Fill-3" fill="#FFFFFF"></path>
                    <path d="M42.3186585,25.8257231 L49.2108555,21.6611873 C50.0582134,21.2186165 51.0660907,20.6805726 52.7343474,20.6805726 C56.264895,20.6805726 58.9057501,23.6864896 58.9057501,26.4446008 L58.9057501,48.4104108 L63.608002,48.4104108 L63.608002,26.533709 C63.608002,20.4331913 58.3128422,16.0906512 52.6792238,16.0906512 C49.6225175,16.0906512 47.1686415,17.4525217 46.4939302,17.8479924 L42.3631983,20.3449317 L42.3385029,0.280521129 L37.6104531,0.280521129 L37.6104531,48.4104108 L42.3385029,48.4104108 L42.3186585,25.8257231 L42.3186585,25.8257231 L42.3186585,25.8257231 Z" id="Fill-5" fill="#FFFFFF"></path>
                    <path d="M154.802101,20.6522277 C156.665935,20.7033589 160.460855,21.7858115 161.900018,25.6552294 C162.160863,26.3560018 161.572806,27.1842838 160.696122,27.1842838 L143.851053,27.1840716 C146.2207,22.6785909 150.685701,20.5393574 154.802101,20.6522277 M164.682431,45.2562773 C166.114979,44.2050126 165.974083,42.7188148 165.385365,41.9675477 C164.751445,41.1587848 163.197405,40.7283072 162.091628,41.4108337 C159.90058,42.7633689 158.099587,43.5029671 156.061782,43.6958229 C148.820764,44.3811073 142.509127,39.1300879 142.669426,31.7012214 L164.641198,31.7012214 C165.97695,31.7012214 166.838199,30.8078056 166.992324,29.4728796 C167.792276,22.5372907 162.348503,16.3137188 155.146512,15.9793508 C145.659543,15.5389017 137.840611,23.1118265 137.840611,32.175192 C137.840611,41.8663462 146.147717,48.4075253 154.672891,48.4075253 C158.243128,48.4075253 161.953819,47.2584537 164.682431,45.2562773" id="Fill-7" fill="#FFFFFF"></path>
                    <path d="M297.175337,20.6522285 C299.039171,20.7033597 302.834091,21.7858123 304.273254,25.6552302 C304.534099,26.3560026 303.946041,27.1842846 303.069358,27.1842846 L286.224289,27.1840724 C288.593936,22.6785917 293.058937,20.5393581 297.175337,20.6522285 M307.055666,45.2562779 C308.488215,44.2050135 308.347319,42.7188157 307.758601,41.9675486 C307.124681,41.1587857 305.57064,40.7283082 304.464863,41.4108346 C302.273816,42.7633698 300.472822,43.502968 298.435018,43.6958235 C291.194,44.3811082 284.882363,39.1300888 285.042662,31.701222 L307.014434,31.701222 C308.350186,31.701222 309.211435,30.8078062 309.36556,29.4728804 C310.165512,22.5372915 304.721739,16.3137196 297.519748,15.9793516 C288.032779,15.5389025 280.213847,23.1118273 280.213847,32.175193 C280.213847,41.8663472 288.520953,48.4075262 297.046127,48.4075262 C300.616363,48.4075262 304.327055,47.2584547 307.055666,45.2562779" id="Fill-9" fill="#FFFFFF"></path>
                    <path d="M92.4206181,38.3522369 C92.4206181,38.3522369 86.2961805,42.7412403 84.1812034,43.4475292 C81.7182872,44.2698705 79.6366046,43.0022001 78.9369776,41.4684783 C77.7934964,38.9622037 79.1054349,37.0319504 80.7646513,36.1671763 C80.9344314,36.0787044 81.1467671,35.9830192 81.4040834,35.9299787 L92.4206181,33.5768854 L92.4206181,38.3522369 L92.4206181,38.3522369 L92.4206181,38.3522369 Z M99.4111554,43.9535366 C98.1799174,43.9535366 97.2913272,43.0813368 97.2913272,42.1796466 L97.3083053,26.5337302 C97.3083053,21.1051308 92.7895041,16.1040387 86.3795274,16.0906724 C79.0522958,16.0751846 75.7814899,22.2278943 75.5711388,24.9796406 L75.5720209,24.9796406 C75.5638625,25.0577164 75.5596732,25.1366408 75.5596732,25.216626 C75.5596732,26.5131505 76.6519996,27.564203 77.9994376,27.564203 C79.2066415,27.564203 80.2065811,26.7197967 80.4021592,25.6116724 L80.4023799,25.6116724 C80.4026002,25.6095508 80.4030413,25.6074292 80.4032616,25.6053075 C80.4140658,25.541871 80.4233268,25.4782223 80.4290595,25.4133006 C80.7844957,23.1660764 83.1318733,20.6805938 86.2686187,20.6805938 C90.2972621,20.6805938 92.4653782,23.8456326 92.4206181,26.4533207 L92.4206181,29.0525223 C92.4206181,29.0525223 80.3651164,31.6305076 80.0332732,31.7073103 C76.644944,32.4912504 73.6074206,36.0670356 73.7637505,40.1556172 C73.9262547,44.4003504 77.6693583,48.2659494 82.5581483,48.2659494 C84.8107134,48.2659494 86.6408125,47.4221796 88.8457511,46.215824 C89.8867027,45.6463804 92.7079215,43.7553767 92.7079215,43.7553767 C93.5793133,46.9579683 96.6732831,48.5383659 99.4111554,48.5383659 C100.726842,48.5383659 101.793591,47.5121365 101.793591,46.2459512 C101.793591,44.9799781 100.726842,43.9535366 99.4111554,43.9535366 L99.4111554,43.9535366 L99.4111554,43.9535366 L99.4111554,43.9535366 Z" id="Fill-12" fill="#FFFFFF"></path>
                    <path d="M238.149816,38.3522369 C238.149816,38.3522369 232.025378,42.7412403 229.910401,43.4475292 C227.447485,44.2698705 225.366022,43.0022001 224.666175,41.4684783 C223.522694,38.9622037 224.834632,37.0319504 226.493849,36.1671763 C226.663629,36.0787044 226.875965,35.9830192 227.133281,35.9299787 L238.149816,33.5768854 L238.149816,38.3522369 L238.149816,38.3522369 L238.149816,38.3522369 Z M245.140353,43.9535366 C243.909115,43.9535366 243.020525,43.0813368 243.020525,42.1796466 L243.037503,26.5337302 C243.037503,21.1051308 238.518702,16.1040387 232.108725,16.0906724 C224.781493,16.0751846 221.510687,22.2278943 221.300336,24.9796406 L221.301218,24.9796406 C221.29306,25.0577164 221.288871,25.1366408 221.288871,25.216626 C221.288871,26.5131505 222.381197,27.564203 223.728635,27.564203 C224.935839,27.564203 225.935779,26.7197967 226.131357,25.6116724 L226.131577,25.6116724 C226.131798,25.6095508 226.132239,25.6074292 226.132459,25.6053075 C226.143263,25.541871 226.152524,25.4782223 226.158257,25.4133006 C226.513693,23.1660764 228.861071,20.6805938 231.997816,20.6805938 C236.02646,20.6805938 238.194576,23.8456326 238.149816,26.4533207 L238.149816,29.0525223 C238.149816,29.0525223 226.094314,31.6305076 225.762471,31.7073103 C222.374141,32.4912504 219.336618,36.0670356 219.492948,40.1556172 C219.655452,44.4003504 223.398556,48.2659494 228.287346,48.2659494 C230.539911,48.2659494 232.37001,47.4221796 234.574949,46.215824 C235.6159,45.6463804 238.437119,43.7553767 238.437119,43.7553767 C239.308511,46.9579683 242.402481,48.5383659 245.140353,48.5383659 C246.456039,48.5383659 247.522789,47.5121365 247.522789,46.2459512 C247.522789,44.9799781 246.456039,43.9535366 245.140353,43.9535366 L245.140353,43.9535366 L245.140353,43.9535366 L245.140353,43.9535366 Z" id="Fill-14" fill="#FFFFFF"></path>
                    <path d="M15.140321,22.3711882 C14.8785948,22.2462245 14.4865567,22.0877392 14.0327804,21.9042187 C11.9200082,21.0498407 8.38394822,19.6202904 6.74082798,17.0885565 C5.02097589,14.4384359 5.24014677,10.65261 7.26185496,8.0867179 C9.53404419,5.20300652 12.9896239,4.86948723 15.391243,4.86948723 C15.4920087,4.86948723 15.5923334,4.87012371 15.6933196,4.87139667 C18.2839019,4.90343322 21.0894658,5.51573389 23.4822651,6.63722436 L23.4829266,6.63616354 C23.7898541,6.77491776 24.1311786,6.854903 24.4927885,6.854903 C25.8058294,6.854903 26.8703738,5.83058289 26.8703738,4.56715578 C26.8703738,3.69622914 26.3645609,2.93923368 25.6201736,2.55267378 L25.6201736,2.55246162 C24.0065995,1.61788624 22.2283166,1.13839921 19.9428977,0.684371666 C18.3213859,0.362096974 16.9073588,0.212098157 15.4933317,0.212098157 C14.8322911,0.212098157 14.1659586,0.24413468 13.4559684,0.309905026 C10.2638788,0.605659413 7.20342408,1.80183104 5.26925196,3.50952621 C2.96200424,5.54670962 1.4842544,8.00036778 0.99586051,10.6052978 C0.513419948,13.1792521 0.841294316,15.7718766 1.94354311,18.1026928 C3.03763363,20.4158994 4.81966499,22.3179354 7.09736655,23.6030031 C7.79721405,23.9980494 10.0462514,25.0028506 12.0304756,25.8894773 C13.9236359,26.7353688 15.7118411,27.5345845 16.5007681,27.9483012 C20.3406686,29.9619346 22.2428691,32.8806529 21.8570049,36.1670483 C21.2973915,40.9362469 17.7474404,43.6714449 12.1177912,43.6714449 C9.32170859,43.6714449 5.96799701,42.8654399 3.48281073,41.6981222 L3.48236974,41.698971 C3.15206995,41.531999 2.77656891,41.4363139 2.37769552,41.4363139 C1.0644341,41.4363139 0.000110246929,42.460634 0.000110246929,43.724061 C0.000110246929,44.5971093 0.508569084,45.35559 1.25582277,45.741089 L1.25560227,45.7415131 C3.13685587,46.6455372 5.53671101,47.5126451 8.19057508,47.9849184 C9.64892147,48.2443931 11.0883054,48.3396542 12.4560288,48.3396542 C15.0179469,48.3396542 17.3232102,47.9250887 19.3076549,47.1074148 C22.5270857,45.7807634 24.9423755,42.9974049 26.1085675,39.2701357 C27.1951612,35.7961886 26.7054444,32.2494697 24.7291579,29.2832271 C22.6230006,26.1217951 18.9916872,24.2097875 15.140321,22.3711882" id="Fill-16" fill="#FFFFFF"></path>
                    <path d="M269.96278,13.5684009 C271.261268,13.5684009 272.313905,12.5555376 272.313905,11.3061132 C272.313905,10.0566888 271.261268,9.04382553 269.96278,9.04382553 L262.519348,9.04382553 L262.519348,0.348137286 L257.65834,0.348137286 L257.65834,9.03618767 L253.388918,9.03555119 C252.090429,9.03555119 251.037792,10.0484145 251.037792,11.2978389 C251.037792,12.5472633 252.090429,13.5601266 253.388918,13.5601266 C253.401486,13.5601266 253.413613,13.5586415 253.426181,13.5584293 L253.426181,13.5601266 L257.65834,13.5601266 L257.65834,41.9158438 C257.65834,45.0435421 260.247159,47.9230103 263.659081,48.2690471 C267.417839,48.650303 268.786665,47.2479093 270.486452,45.9125592 C270.486452,45.9125592 270.482483,45.9083158 270.476089,45.9011026 C270.991824,45.4861129 271.32036,44.8629918 271.32036,44.1654019 C271.32036,42.9159774 270.267722,41.9031142 268.969234,41.9031142 C268.317675,41.9031142 267.728074,42.1583455 267.302301,42.570365 C266.580404,43.1542357 265.85079,43.678277 264.862536,43.678277 C263.736254,43.678277 262.51141,42.8512679 262.51141,41.4338108 L262.519348,13.5684009 L269.96278,13.5684009 L269.96278,13.5684009 L269.96278,13.5684009 Z" id="Fill-19" fill="#FFFFFF"></path>
                </g>
                <path d="M227.30271,80.9542986 C224.796187,80.9542986 222.753564,80.1384702 221.17478,78.5067888 C219.595996,76.8751075 218.806616,74.7490708 218.806616,72.128615 C218.806616,69.3616741 219.608203,67.1237407 221.211402,65.4147478 C222.8146,63.7057549 224.938602,62.8512712 227.583472,62.8512712 C230.081857,62.8512712 232.1021,63.6691342 233.644263,65.3048845 C235.186425,66.9406349 235.957495,69.0971888 235.957495,71.7746111 C235.957495,74.5252759 235.157943,76.7428644 233.558814,78.4274431 C231.959685,80.1120219 229.874338,80.9542986 227.30271,80.9542986 Z M227.473609,66.2448259 C226.090138,66.2448259 224.991516,66.7636196 224.17771,67.8012224 C223.363904,68.8388253 222.957007,70.2121025 222.957007,71.9210955 C222.957007,73.6545026 223.363904,75.0257454 224.17771,76.034865 C224.991516,77.0439846 226.057586,77.5485369 227.375952,77.5485369 C228.735009,77.5485369 229.813286,77.058226 230.610816,76.0775896 C231.408346,75.0969532 231.807105,73.7358828 231.807105,71.9943377 C231.807105,70.1795499 231.420553,68.7676174 230.647437,67.7584978 C229.874321,66.7493782 228.816389,66.2448259 227.473609,66.2448259 Z M254.609839,80.6491228 L250.630347,80.6491228 L243.415991,69.6505877 C242.992812,69.0076808 242.699846,68.5234734 242.537085,68.1979509 L242.488257,68.1979509 C242.553361,68.8164436 242.585913,69.7604446 242.585913,71.0299822 L242.585913,80.6491228 L238.862769,80.6491228 L238.862769,63.14424 L243.110816,63.14424 L250.056616,73.8009783 C250.374001,74.2811239 250.666967,74.7571934 250.935523,75.2292009 L250.984351,75.2292009 C250.919246,74.8222979 250.886694,74.0207108 250.886694,72.8244158 L250.886694,63.14424 L254.609839,63.14424 L254.609839,80.6491228 Z M269.03855,80.6491228 L258.613745,80.6491228 L258.613745,63.14424 L262.556616,63.14424 L262.556616,77.4508806 L269.03855,77.4508806 L269.03855,80.6491228 Z M275.337378,80.6491228 L271.394507,80.6491228 L271.394507,63.14424 L275.337378,63.14424 L275.337378,80.6491228 Z M295.063941,80.6491228 L291.084448,80.6491228 L283.870093,69.6505877 C283.446914,69.0076808 283.153948,68.5234734 282.991187,68.1979509 L282.942359,68.1979509 C283.007463,68.8164436 283.040015,69.7604446 283.040015,71.0299822 L283.040015,80.6491228 L279.31687,80.6491228 L279.31687,63.14424 L283.564917,63.14424 L290.510718,73.8009783 C290.828102,74.2811239 291.121068,74.7571934 291.389624,75.2292009 L291.438452,75.2292009 C291.373348,74.8222979 291.340796,74.0207108 291.340796,72.8244158 L291.340796,63.14424 L295.063941,63.14424 L295.063941,80.6491228 Z M309.565894,80.6491228 L299.067847,80.6491228 L299.067847,63.14424 L309.163062,63.14424 L309.163062,66.3546892 L303.010718,66.3546892 L303.010718,70.2487322 L308.735816,70.2487322 L308.735816,73.4469744 L303.010718,73.4469744 L303.010718,77.4508806 L309.565894,77.4508806 L309.565894,80.6491228 Z" id="ONLINE" fill="#FFFFFF"></path>
            </g>
        </g>
    </g>
</svg>